<svg width="198" height="198" viewBox="0 0 198 198" fill="none" xmlns="http://www.w3.org/2000/svg">
<rect width="198" height="198" fill="#C63F21"/>
<path d="M96.1618 45.1214C107.881 44.3933 117.57 46.9417 127.657 52.7191L127.66 47.2328C143.283 52.5248 156.213 63.2122 162.018 79.0404C166.884 92.3094 167.079 106.928 161.02 119.87C154.32 133.864 142.312 144.6 127.66 149.7L127.654 143.927C114.003 152.065 102.452 153.786 86.9441 150.585C71.2086 146.809 59.9665 138.37 51.4802 124.782L51.4655 139.179C38.1278 127.268 31.3567 112.636 32.0476 94.4769C32.6381 78.8477 40.0973 67.2893 51.4626 57.0755L51.4919 71.0111C53.1898 68.322 55.1004 65.7736 57.2058 63.391C67.945 51.2797 80.2465 46.0685 96.1618 45.1214ZM127.651 84.5707C120.237 71.6439 110.194 64.9627 94.9138 66.3519C86.0199 67.7793 78.7287 71.8586 73.3044 79.1517C69.0938 85.0641 65.9998 94.3347 67.3757 101.536C69.1976 111.092 72.2269 118.917 80.6335 124.528C96.1268 134.874 114.957 131.13 125.306 115.961C125.54 115.613 125.768 115.261 125.986 114.904L127.663 112.064L127.669 125.543C135.706 119.54 140.812 113.602 142.336 103.299C143.7 94.6771 141.517 85.8718 136.288 78.8832C133.778 75.5081 131.153 73.1659 127.666 70.8539L127.651 84.5707Z" fill="#F6F2ED"/>
</svg>
