<svg width="690" height="317" viewBox="0 0 690 317" fill="none" xmlns="http://www.w3.org/2000/svg">
<path d="M137.416 92.3358C151.049 90.8013 160.123 94.7113 171.608 100.282C184.535 106.552 186.91 91.0985 202.822 98.0907C209.632 94.3501 219.525 96.1848 222.579 103.225C225.222 109.319 224.437 121.952 224.44 128.774L224.443 159.357L224.438 189.105C224.445 198.885 226.885 216.61 215.865 220.864C211.092 222.706 207.087 221.927 202.592 219.997C189.663 226.019 187.546 216.534 176.502 216.431C173.047 216.398 165.119 221.081 161.305 222.489C156.521 224.25 154.601 224.777 149.431 225.501C134.199 226.975 120.763 224.365 107.383 217.012L107.382 223.387C103.179 222.199 99.1002 220.61 95.2029 218.64C61.2059 201.271 50.8772 159.119 68.4109 126.564C76.9051 110.794 90.3529 100.002 107.382 94.7646L107.384 101.595C117.819 95.43 125.403 93.1697 137.416 92.3358ZM180.579 164.247C183.187 139.267 165.244 117.526 139.465 119.172C123.278 120.694 114.476 128.331 107.405 142.624L107.374 124.367C97.7825 130.892 91.2434 141.025 89.2488 152.453C87.3077 163.226 90.2235 174.112 96.4764 182.995C99.415 187.175 103.111 190.767 107.374 193.587L107.404 175.818C108.713 178.116 110.244 180.958 111.706 183.091C119.994 193.944 130.023 199.786 144.012 198.705C152.398 198.058 159.508 195.925 166.196 190.631C174.367 184.149 179.558 174.626 180.579 164.247Z" fill="#C63F21"/>
<path d="M542.544 92.702C557.137 91.7953 569.2 94.9683 581.759 102.162L581.763 95.3299C601.216 101.919 617.317 115.227 624.545 134.935C630.604 151.457 630.846 169.661 623.302 185.775C614.96 203.199 600.006 216.567 581.763 222.917L581.756 215.728C564.759 225.861 550.376 228.005 531.066 224.019C511.473 219.317 497.476 208.809 486.909 191.889L486.891 209.816C470.283 194.985 461.853 176.767 462.713 154.155C463.449 134.695 472.736 120.303 486.887 107.586L486.924 124.937C489.038 121.589 491.417 118.417 494.038 115.45C507.41 100.37 522.727 93.8811 542.544 92.702ZM581.752 141.821C572.52 125.726 560.016 117.406 540.99 119.136C529.915 120.913 520.837 125.993 514.083 135.074C508.84 142.436 504.987 153.979 506.7 162.946C508.969 174.844 512.742 184.587 523.209 191.573C542.501 204.456 565.947 199.794 578.833 180.907C579.124 180.473 579.407 180.036 579.679 179.591L581.767 176.054L581.775 192.838C591.783 185.363 598.139 177.969 600.036 165.141C601.735 154.406 599.018 143.441 592.507 134.739C589.382 130.537 586.113 127.621 581.771 124.742L581.752 141.821Z" fill="#C63F21"/>
<path d="M374.249 93.0675C378.451 92.4057 384.437 93.2204 388.753 93.3995C391.588 93.451 394.522 92.9039 397.353 92.9715C412.376 93.348 427.156 97.3986 438.587 107.631C444.083 112.551 457.073 125.341 453.319 133.992C449.091 143.727 435.653 141.824 428.413 136.437C422.703 132.184 418.122 126.523 412.151 122.681C407.747 119.896 397.224 117.943 392.308 119.198L391.834 120.183C390.367 120.397 387.216 119.295 385.547 119.108C373.785 117.792 362.108 122.014 354.582 131.293C351.792 134.044 351.111 138.638 349.428 141.56C344.607 149.541 343.652 155.695 344.876 164.802C347.597 185.046 361.932 199.679 382.966 198.742C385.558 198.628 388.647 197.896 391.279 197.528C395.103 199.117 395.117 198.933 399.21 198.617C406.434 198.062 412.048 195.841 417.744 191.484C421.777 188.01 424.722 183.55 429.597 180.796C434.513 178.009 440.73 177.027 446.219 178.52C452.33 180.178 454.554 186.679 452.315 192.245C447.139 205.113 434.66 213.985 422.487 219.574C414.872 223.147 406.644 225.232 398.246 225.714C397.015 225.795 394.676 226.092 393.695 225.589C391.551 224.482 388.977 225.155 386.463 225.39C369.366 226.923 352.358 221.644 339.14 210.698C317.761 193.105 311.023 160.585 319.536 134.899C327.067 112.177 350.759 95.2871 374.249 93.0675Z" fill="#C63F21"/>
<path d="M286.639 94.4668C287.978 94.3624 290.031 94.1543 291.314 94.4227C293.179 94.8128 295.378 96.657 297.283 96.3677L298.026 95.2592C303.538 93.3212 310.744 93.9602 314.111 99.2197C316.094 102.318 317.091 106.357 316.447 110.001C314.6 120.455 304.7 121.974 297.555 127.142L297.111 127.469L297.101 118.129C292.114 122.596 287.406 123.47 282.882 126.828C270.696 135.876 271.443 156.615 271.453 170.167L271.479 193.48C271.483 198.275 271.663 204.771 271.027 209.382L270.941 209.989C269.666 215.467 267.034 220.03 261.331 221.765C257.607 222.883 253.585 222.419 250.215 220.474C247.758 219.044 245.166 216.154 244.633 213.386C243.237 206.128 243.624 197.223 243.619 189.785L243.607 158.685L243.614 128.23C243.618 120.765 242.55 108.142 246.572 101.721C252.971 91.5064 262.774 97.8273 271.625 97.86C275.218 97.8736 282.605 95.4007 286.639 94.4668Z" fill="#C63F21"/>
</svg>
